<svg width="60" height="60" viewBox="0 0 60 60" fill="none" xmlns="http://www.w3.org/2000/svg">
<path d="M57.1875 11.25H9.375V10.3125C9.375 10.0639 9.27623 9.8254 9.10041 9.64959C8.9246 9.47377 8.68614 9.375 8.4375 9.375H6.5625C3.97781 9.375 1.875 11.4778 1.875 14.0625V46.875C1.875 48.9431 3.55687 50.625 5.625 50.625H33.75V57.1875C33.75 57.4361 33.8488 57.6746 34.0246 57.8504C34.2004 58.0262 34.4389 58.125 34.6875 58.125H49.6875C49.9361 58.125 50.1746 58.0262 50.3504 57.8504C50.5262 57.6746 50.625 57.4361 50.625 57.1875V50.625H57.1875C57.4361 50.625 57.6746 50.5262 57.8504 50.3504C58.0262 50.1746 58.125 49.9361 58.125 49.6875V12.1875C58.125 11.9389 58.0262 11.7004 57.8504 11.5246C57.6746 11.3488 57.4361 11.25 57.1875 11.25ZM3.75 14.0625C3.75 12.5119 5.01187 11.25 6.5625 11.25H7.5V43.125H5.625C4.96647 43.124 4.31946 43.2977 3.75 43.6284V14.0625ZM43.125 56.25H41.25V52.5H43.125V56.25ZM48.75 56.25H45V51.5625C45 51.3139 44.9012 51.0754 44.7254 50.8996C44.5496 50.7238 44.3111 50.625 44.0625 50.625H40.3125C40.0639 50.625 39.8254 50.7238 39.6496 50.8996C39.4738 51.0754 39.375 51.3139 39.375 51.5625V56.25H35.625V48.3319L42.1875 44.2303L48.75 48.3319V56.25ZM56.25 48.75H50.625V47.8125C50.625 47.6535 50.5846 47.4971 50.5075 47.358C50.4304 47.219 50.3192 47.1018 50.1844 47.0175L42.6844 42.33C42.5353 42.2372 42.3631 42.188 42.1875 42.188C42.0119 42.188 41.8397 42.2372 41.6906 42.33L34.1906 47.0175C34.0558 47.1018 33.9446 47.219 33.8675 47.358C33.7904 47.4971 33.75 47.6535 33.75 47.8125V48.75H5.625C4.59094 48.75 3.75 47.9091 3.75 46.875C3.75 45.8409 4.59094 45 5.625 45H8.4375C8.68614 45 8.9246 44.9012 9.10041 44.7254C9.27623 44.5496 9.375 44.3111 9.375 44.0625V13.125H56.25V48.75Z" fill="white"/>
<path d="M46.875 39.375V41.1591L42.6787 38.5762C42.531 38.4853 42.361 38.4371 42.1875 38.4371C42.014 38.4371 41.844 38.4853 41.6963 38.5762L29.5087 46.0762L30.4912 47.6728L42.1875 40.4756L53.8838 47.6728L54.8662 46.0762L48.75 42.3131V39.375H46.875ZM12.1875 7.5H49.6875C49.8722 7.5 50.0541 7.44469 50.2078 7.3425L53.0203 5.4675C53.1485 5.38174 53.2536 5.2657 53.3263 5.12965C53.3989 4.9936 53.437 4.84174 53.437 4.6875C53.437 4.53326 53.3989 4.3814 53.3263 4.24535C53.2536 4.1093 53.1485 3.99326 53.0203 3.9075L50.2078 2.0325C50.0536 1.93007 49.8726 1.87529 49.6875 1.875H9.375C7.82437 1.875 6.5625 3.13687 6.5625 4.6875C6.5625 6.23812 7.82437 7.5 9.375 7.5H12.1875ZM13.125 3.75H49.4034L50.8097 4.6875L49.4034 5.625H13.125V3.75ZM8.4375 4.6875C8.4375 4.17094 8.85844 3.75 9.375 3.75H11.25V5.625H9.375C8.85844 5.625 8.4375 5.20406 8.4375 4.6875Z" fill="white"/>
<path d="M12.1875 41.25H35.625V39.375H24.375V32.8125H35.625V30.9375H24.375V23.4375H22.5V39.375H13.125V16.875H22.5V19.6875H24.375V16.875H45V30.9375H39.375V32.8125H45V37.5H46.875V15.9375C46.875 15.6889 46.7762 15.4504 46.6004 15.2746C46.4246 15.0988 46.1861 15 45.9375 15H12.1875C11.9389 15 11.7004 15.0988 11.5246 15.2746C11.3488 15.4504 11.25 15.6889 11.25 15.9375V40.3125C11.25 40.5611 11.3488 40.7996 11.5246 40.9754C11.7004 41.1512 11.9389 41.25 12.1875 41.25Z" fill="white"/>
</svg>
