<svg width="60" height="60" viewBox="0 0 60 60" fill="none" xmlns="http://www.w3.org/2000/svg">
<path d="M56.25 2.8125C56.25 2.56386 56.1512 2.3254 55.9754 2.14959C55.7996 1.97377 55.5611 1.875 55.3125 1.875H27.1875C26.9389 1.875 26.7004 1.97377 26.5246 2.14959C26.3488 2.3254 26.25 2.56386 26.25 2.8125V9.375H2.8125C2.56386 9.375 2.3254 9.47377 2.14959 9.64959C1.97377 9.8254 1.875 10.0639 1.875 10.3125V57.1875C1.875 57.4361 1.97377 57.6746 2.14959 57.8504C2.3254 58.0262 2.56386 58.125 2.8125 58.125H55.3125C55.5611 58.125 55.7996 58.0262 55.9754 57.8504C56.1512 57.6746 56.25 57.4361 56.25 57.1875V45H58.125V43.125H56.25V34.6875H58.125V32.8125H56.25V24.375H58.125V22.5H56.25V14.0625H58.125V12.1875H56.25V2.8125ZM32.8125 12.1875V9.375H35.625V12.1875H32.8125ZM37.5 9.375H40.3125V12.1875H37.5V9.375ZM42.1875 9.375H45V12.1875H42.1875V9.375ZM46.875 9.375H49.6875V12.1875H46.875V9.375ZM51.5625 9.375H54.375V12.1875H51.5625V9.375ZM28.125 3.75H54.375V7.5H31.875C31.6264 7.5 31.3879 7.59877 31.2121 7.77459C31.0363 7.9504 30.9375 8.18886 30.9375 8.4375V12.1875H28.125V10.3125V3.75ZM26.25 56.25H3.75V11.25H26.25V56.25ZM48.75 56.25H42.1875V48.75H48.75V56.25ZM40.3125 56.25H33.75V48.75H40.3125V56.25ZM54.375 56.25H50.625V47.8125C50.625 47.5639 50.5262 47.3254 50.3504 47.1496C50.1746 46.9738 49.9361 46.875 49.6875 46.875H32.8125C32.5639 46.875 32.3254 46.9738 32.1496 47.1496C31.9738 47.3254 31.875 47.5639 31.875 47.8125V56.25H28.125V45H54.375V56.25ZM46.875 43.125V40.3125H49.6875V43.125H46.875ZM45 43.125H42.1875V40.3125H45V43.125ZM40.3125 43.125H37.5V40.3125H40.3125V43.125ZM35.625 43.125H32.8125V40.3125H35.625V43.125ZM51.5625 43.125V40.3125H54.375V43.125H51.5625ZM54.375 38.4375H31.875C31.6264 38.4375 31.3879 38.5363 31.2121 38.7121C31.0363 38.8879 30.9375 39.1264 30.9375 39.375V43.125H28.125V34.6875H54.375V38.4375ZM46.875 32.8125V30H49.6875V32.8125H46.875ZM45 32.8125H42.1875V30H45V32.8125ZM40.3125 32.8125H37.5V30H40.3125V32.8125ZM35.625 32.8125H32.8125V30H35.625V32.8125ZM51.5625 32.8125V30H54.375V32.8125H51.5625ZM54.375 28.125H31.875C31.6264 28.125 31.3879 28.2238 31.2121 28.3996C31.0363 28.5754 30.9375 28.8139 30.9375 29.0625V32.8125H28.125V24.375H54.375V28.125ZM46.875 22.5V19.6875H49.6875V22.5H46.875ZM45 22.5H42.1875V19.6875H45V22.5ZM40.3125 22.5H37.5V19.6875H40.3125V22.5ZM35.625 22.5H32.8125V19.6875H35.625V22.5ZM51.5625 22.5V19.6875H54.375V22.5H51.5625ZM54.375 17.8125H31.875C31.6264 17.8125 31.3879 17.9113 31.2121 18.0871C31.0363 18.2629 30.9375 18.5014 30.9375 18.75V22.5H28.125V14.0625H54.375V17.8125Z" fill="white"/>
<path d="M7.5 24.375H12.1875C12.4361 24.375 12.6746 24.2762 12.8504 24.1004C13.0262 23.9246 13.125 23.6861 13.125 23.4375V15C13.125 14.7514 13.0262 14.5129 12.8504 14.3371C12.6746 14.1613 12.4361 14.0625 12.1875 14.0625H7.5C7.25136 14.0625 7.0129 14.1613 6.83709 14.3371C6.66127 14.5129 6.5625 14.7514 6.5625 15V23.4375C6.5625 23.6861 6.66127 23.9246 6.83709 24.1004C7.0129 24.2762 7.25136 24.375 7.5 24.375ZM8.4375 15.9375H11.25V22.5H8.4375V15.9375ZM17.8125 24.375H22.5C22.7486 24.375 22.9871 24.2762 23.1629 24.1004C23.3387 23.9246 23.4375 23.6861 23.4375 23.4375V15C23.4375 14.7514 23.3387 14.5129 23.1629 14.3371C22.9871 14.1613 22.7486 14.0625 22.5 14.0625H17.8125C17.5639 14.0625 17.3254 14.1613 17.1496 14.3371C16.9738 14.5129 16.875 14.7514 16.875 15V23.4375C16.875 23.6861 16.9738 23.9246 17.1496 24.1004C17.3254 24.2762 17.5639 24.375 17.8125 24.375ZM18.75 15.9375H21.5625V22.5H18.75V15.9375ZM7.5 36.5625H12.1875C12.4361 36.5625 12.6746 36.4637 12.8504 36.2879C13.0262 36.1121 13.125 35.8736 13.125 35.625V27.1875C13.125 26.9389 13.0262 26.7004 12.8504 26.5246C12.6746 26.3488 12.4361 26.25 12.1875 26.25H7.5C7.25136 26.25 7.0129 26.3488 6.83709 26.5246C6.66127 26.7004 6.5625 26.9389 6.5625 27.1875V35.625C6.5625 35.8736 6.66127 36.1121 6.83709 36.2879C7.0129 36.4637 7.25136 36.5625 7.5 36.5625ZM8.4375 28.125H11.25V34.6875H8.4375V28.125ZM17.8125 36.5625H22.5C22.7486 36.5625 22.9871 36.4637 23.1629 36.2879C23.3387 36.1121 23.4375 35.8736 23.4375 35.625V27.1875C23.4375 26.9389 23.3387 26.7004 23.1629 26.5246C22.9871 26.3488 22.7486 26.25 22.5 26.25H17.8125C17.5639 26.25 17.3254 26.3488 17.1496 26.5246C16.9738 26.7004 16.875 26.9389 16.875 27.1875V35.625C16.875 35.8736 16.9738 36.1121 17.1496 36.2879C17.3254 36.4637 17.5639 36.5625 17.8125 36.5625ZM18.75 28.125H21.5625V34.6875H18.75V28.125ZM7.5 48.75H12.1875C12.4361 48.75 12.6746 48.6512 12.8504 48.4754C13.0262 48.2996 13.125 48.0611 13.125 47.8125V39.375C13.125 39.1264 13.0262 38.8879 12.8504 38.7121C12.6746 38.5363 12.4361 38.4375 12.1875 38.4375H7.5C7.25136 38.4375 7.0129 38.5363 6.83709 38.7121C6.66127 38.8879 6.5625 39.1264 6.5625 39.375V47.8125C6.5625 48.0611 6.66127 48.2996 6.83709 48.4754C7.0129 48.6512 7.25136 48.75 7.5 48.75ZM8.4375 40.3125H11.25V46.875H8.4375V40.3125ZM17.8125 48.75H22.5C22.7486 48.75 22.9871 48.6512 23.1629 48.4754C23.3387 48.2996 23.4375 48.0611 23.4375 47.8125V39.375C23.4375 39.1264 23.3387 38.8879 23.1629 38.7121C22.9871 38.5363 22.7486 38.4375 22.5 38.4375H17.8125C17.5639 38.4375 17.3254 38.5363 17.1496 38.7121C16.9738 38.8879 16.875 39.1264 16.875 39.375V47.8125C16.875 48.0611 16.9738 48.2996 17.1496 48.4754C17.3254 48.6512 17.5639 48.75 17.8125 48.75ZM18.75 40.3125H21.5625V46.875H18.75V40.3125Z" fill="white"/>
</svg>
