<svg width="60" height="60" viewBox="0 0 60 60" fill="none" xmlns="http://www.w3.org/2000/svg">
<path d="M30.5499 2.05285C30.3897 1.93723 30.1971 1.875 29.9996 1.875C29.802 1.875 29.6095 1.93723 29.4493 2.05285L2.26176 21.7404C2.10065 21.8562 1.98051 22.0203 1.91868 22.2089C1.85685 22.3975 1.85653 22.6008 1.91775 22.7896C1.97897 22.9784 2.09858 23.1428 2.25932 23.2592C2.42006 23.3756 2.61362 23.438 2.81208 23.4372H6.56208V33.7497H8.43708V23.4372H14.0621V21.5622H5.7052L29.9996 3.97004L54.294 21.5622H52.4996C52.2509 21.5622 52.0125 21.661 51.8367 21.8368C51.6608 22.0126 51.5621 22.2511 51.5621 22.4997V56.2497H16.8746V43.1247C16.8746 38.9894 13.5099 35.6247 9.37458 35.6247C5.23926 35.6247 1.87458 38.9894 1.87458 43.1247V57.1872C1.87458 57.4359 1.97335 57.6743 2.14916 57.8501C2.32498 58.026 2.56344 58.1247 2.81208 58.1247H52.4996C52.7482 58.1247 52.9867 58.026 53.1625 57.8501C53.3383 57.6743 53.4371 57.4359 53.4371 57.1872V23.4372H57.1871C57.3855 23.438 57.5791 23.3756 57.7398 23.2592C57.9006 23.1428 58.0202 22.9784 58.0814 22.7896C58.1426 22.6008 58.1423 22.3975 58.0805 22.2089C58.0186 22.0203 57.8985 21.8562 57.7374 21.7404L30.5499 2.05285ZM9.37458 37.4997C12.4768 37.4997 14.9996 40.0225 14.9996 43.1247H3.74958C3.74958 40.0225 6.27239 37.4997 9.37458 37.4997ZM3.74958 44.9997H9.37458V46.8747C9.36378 47.1161 9.26029 47.344 9.08566 47.511C8.91102 47.678 8.67871 47.7712 8.43708 47.7712C8.19545 47.7712 7.96313 47.678 7.7885 47.511C7.61386 47.344 7.51038 47.1161 7.49958 46.8747V45.9372H5.62458V49.6872C5.61378 49.9286 5.51029 50.1565 5.33566 50.3235C5.16102 50.4905 4.92871 50.5837 4.68708 50.5837C4.44545 50.5837 4.21313 50.4905 4.0385 50.3235C3.86387 50.1565 3.76038 49.9286 3.74958 49.6872V48.7497V44.9997ZM14.9996 56.2497H3.74958V52.3272C4.04395 52.4322 4.35708 52.4997 4.68708 52.4997C6.2377 52.4997 7.49958 51.2379 7.49958 49.6872V49.5147C7.79395 49.6197 8.10708 49.6872 8.43708 49.6872C9.9877 49.6872 11.2496 48.4254 11.2496 46.8747V44.9997H14.9996V56.2497Z" fill="white"/>
<path d="M22.0312 36.5625C21.4099 36.5632 20.8142 36.8104 20.3748 37.2498C19.9354 37.6892 19.6882 38.2849 19.6875 38.9062V48.75H21.5625V38.9062C21.5625 38.7819 21.6119 38.6627 21.6998 38.5748C21.7877 38.4869 21.9069 38.4375 22.0312 38.4375C22.1556 38.4375 22.2748 38.4869 22.3627 38.5748C22.4506 38.6627 22.5 38.7819 22.5 38.9062V41.7188C22.5 43.5281 23.9719 45 25.7812 45C27.5906 45 29.0625 43.5281 29.0625 41.7188V35.1562C29.0625 35.0319 29.1119 34.9127 29.1998 34.8248C29.2877 34.7369 29.4069 34.6875 29.5312 34.6875C29.6556 34.6875 29.7748 34.7369 29.8627 34.8248C29.9506 34.9127 30 35.0319 30 35.1562V37.9688C30 39.7781 31.4719 41.25 33.2812 41.25C35.0906 41.25 36.5625 39.7781 36.5625 37.9688V30.9375H43.125C43.3736 30.9375 43.6121 30.8387 43.7879 30.6629C43.9637 30.4871 44.0625 30.2486 44.0625 30V27.1875H47.8125V32.115L39.1059 34.7269C38.9128 34.7849 38.7435 34.9036 38.6231 35.0653C38.5027 35.2271 38.4376 35.4233 38.4375 35.625V42.1875H37.5C37.2514 42.1875 37.0129 42.2863 36.8371 42.4621C36.6613 42.6379 36.5625 42.8764 36.5625 43.125V54.375H38.4375V44.0625H40.3125V54.375H42.1875V43.125C42.1875 42.8764 42.0887 42.6379 41.9129 42.4621C41.7371 42.2863 41.4986 42.1875 41.25 42.1875H40.3125V36.3225L49.0191 33.7106C49.4156 33.5916 49.6875 33.2259 49.6875 32.8125V26.25C49.6875 26.0014 49.5887 25.7629 49.4129 25.5871C49.2371 25.4113 48.9986 25.3125 48.75 25.3125H44.0625V22.5C44.0625 22.2514 43.9637 22.0129 43.7879 21.8371C43.6121 21.6613 43.3736 21.5625 43.125 21.5625H20.625C20.3764 21.5625 20.1379 21.6613 19.9621 21.8371C19.7863 22.0129 19.6875 22.2514 19.6875 22.5V30C19.6875 30.2486 19.7863 30.4871 19.9621 30.6629C20.1379 30.8387 20.3764 30.9375 20.625 30.9375H34.6875V37.9688C34.6875 38.7441 34.0566 39.375 33.2812 39.375C32.5059 39.375 31.875 38.7441 31.875 37.9688V35.1562C31.875 33.8644 30.8241 32.8125 29.5312 32.8125C28.2384 32.8125 27.1875 33.8644 27.1875 35.1562V41.7188C27.1875 42.4941 26.5566 43.125 25.7812 43.125C25.0059 43.125 24.375 42.4941 24.375 41.7188V38.9062C24.375 37.6144 23.3241 36.5625 22.0312 36.5625ZM42.1875 29.0625H38.8256L33.2006 23.4375H42.1875V29.0625ZM36.1744 29.0625H32.2631L26.6381 23.4375H30.5494L36.1744 29.0625ZM21.5625 23.4375H23.9869L29.6119 29.0625H21.5625V23.4375ZM19.6875 50.625H21.5625V52.5H19.6875V50.625ZM34.6875 19.6875C34.9361 19.6875 35.1746 19.5887 35.3504 19.4129C35.5262 19.2371 35.625 18.9986 35.625 18.75V11.25C35.625 11.0014 35.5262 10.7629 35.3504 10.5871C35.1746 10.4113 34.9361 10.3125 34.6875 10.3125H25.3125C25.0639 10.3125 24.8254 10.4113 24.6496 10.5871C24.4738 10.7629 24.375 11.0014 24.375 11.25V18.75C24.375 18.9986 24.4738 19.2371 24.6496 19.4129C24.8254 19.5887 25.0639 19.6875 25.3125 19.6875H34.6875ZM26.25 15.9375H29.0625V17.8125H26.25V15.9375ZM30.9375 17.8125V15.9375H33.75V17.8125H30.9375ZM33.75 14.0625H30.9375V12.1875H33.75V14.0625ZM29.0625 12.1875V14.0625H26.25V12.1875H29.0625ZM15.9375 21.5625H17.8125V23.4375H15.9375V21.5625Z" fill="white"/>
</svg>
