<svg width="60" height="60" viewBox="0 0 60 60" fill="none" xmlns="http://www.w3.org/2000/svg">
<path d="M56.25 7.5H33.75V5.625C33.75 3.55687 32.0681 1.875 30 1.875C27.9319 1.875 26.25 3.55687 26.25 5.625V7.5H3.75C2.71594 7.5 1.875 8.34094 1.875 9.375V11.25C1.875 12.2841 2.71594 13.125 3.75 13.125H4.6875V37.5H6.5625V13.125H53.4375V41.25H6.5625V39.375H4.6875V42.1875C4.6875 42.4361 4.78627 42.6746 4.96209 42.8504C5.1379 43.0262 5.37636 43.125 5.625 43.125H15V45C15 46.0341 15.8409 46.875 16.875 46.875H21.1622L17.8697 55.9294C17.832 56.0321 17.8127 56.1406 17.8125 56.25C17.8125 57.2841 18.6534 58.125 19.6875 58.125H21.5625C22.0263 58.1245 22.4735 57.9522 22.8178 57.6415C23.1622 57.3307 23.3792 56.9035 23.4272 56.4422L26.9062 46.875H27.1875V56.25C27.1875 57.2841 28.0284 58.125 29.0625 58.125H30.9375C31.9716 58.125 32.8125 57.2841 32.8125 56.25V46.875H33.0938L36.5728 56.4422C36.6208 56.9035 36.8378 57.3307 37.1822 57.6415C37.5265 57.9522 37.9737 58.1245 38.4375 58.125H40.3125C41.3466 58.125 42.1875 57.2841 42.1875 56.25C42.1873 56.1406 42.168 56.0321 42.1303 55.9294L38.8378 46.875H43.125C44.1591 46.875 45 46.0341 45 45V43.125H54.375C54.6236 43.125 54.8621 43.0262 55.0379 42.8504C55.2137 42.6746 55.3125 42.4361 55.3125 42.1875V13.125H56.25C57.2841 13.125 58.125 12.2841 58.125 11.25V9.375C58.125 8.34094 57.2841 7.5 56.25 7.5ZM21.6197 55.9294C21.582 56.0321 21.5627 56.1406 21.5625 56.25H19.7475L23.1562 46.875H24.9113L21.6197 55.9294ZM30.9375 56.25H29.0625V46.875H30.9375V56.25ZM40.2525 56.25H38.4375C38.4373 56.1406 38.418 56.0321 38.3803 55.9294L35.0878 46.875H36.8438L40.2525 56.25ZM43.125 45H16.875V43.125H43.125V45ZM28.125 5.625C28.125 4.59094 28.9659 3.75 30 3.75C31.0341 3.75 31.875 4.59094 31.875 5.625V7.5H28.125V5.625ZM3.75 11.25V9.375H56.25L56.2509 11.25H3.75Z" fill="white"/>
<path d="M29.0625 15.9376C29.0625 15.6889 28.9637 15.4505 28.7879 15.2747C28.6121 15.0989 28.3736 15.0001 28.125 15.0001H9.375C9.12636 15.0001 8.8879 15.0989 8.71209 15.2747C8.53627 15.4505 8.4375 15.6889 8.4375 15.9376V29.0626C8.4375 29.3112 8.53627 29.5497 8.71209 29.7255C8.8879 29.9013 9.12636 30.0001 9.375 30.0001H28.125C28.3736 30.0001 28.6121 29.9013 28.7879 29.7255C28.9637 29.5497 29.0625 29.3112 29.0625 29.0626V15.9376ZM27.1875 22.5001H16.875V16.8751H27.1875V22.5001ZM15 16.8751V22.5001H10.3125V16.8751H15ZM10.3125 24.3751H21.5625V28.1251H10.3125V24.3751ZM23.4375 28.1251V24.3751H27.1875V28.1251H23.4375ZM8.4375 31.8751H15V33.7501H8.4375V31.8751ZM16.875 31.8751H29.0625V33.7501H16.875V31.8751ZM8.4375 35.6251H29.0625V37.5001H8.4375V35.6251ZM32.8125 37.5001H49.6875C49.9361 37.5001 50.1746 37.4013 50.3504 37.2255C50.5262 37.0497 50.625 36.8112 50.625 36.5626V24.3751C50.8191 24.3746 51.0082 24.314 51.1664 24.2016C51.3246 24.0892 51.444 23.9305 51.5083 23.7474C51.5725 23.5643 51.5784 23.3658 51.5252 23.1791C51.4719 22.9925 51.3621 22.827 51.2109 22.7054L41.8359 15.2054C41.6696 15.0724 41.463 15 41.25 15C41.037 15 40.8304 15.0724 40.6641 15.2054L31.2891 22.7054C31.1373 22.8268 31.027 22.9923 30.9734 23.1791C30.9198 23.3658 30.9256 23.5647 30.9899 23.748C31.0543 23.9314 31.174 24.0902 31.3326 24.2025C31.4911 24.3149 31.6807 24.3752 31.875 24.3751V36.5626C31.875 36.8112 31.9738 37.0497 32.1496 37.2255C32.3254 37.4013 32.5639 37.5001 32.8125 37.5001ZM43.125 35.6251H39.375V30.0001H43.125V35.6251ZM41.25 17.1385L47.9522 22.5001H34.5478L41.25 17.1385ZM48.75 24.3751V35.6251H45V29.0626C45 28.8139 44.9012 28.5755 44.7254 28.3997C44.5496 28.2239 44.3111 28.1251 44.0625 28.1251H38.4375C38.1889 28.1251 37.9504 28.2239 37.7746 28.3997C37.5988 28.5755 37.5 28.8139 37.5 29.0626V35.6251H33.75V24.3751H48.75Z" fill="white"/>
</svg>
