<svg width="40" height="40" viewBox="0 0 40 40" fill="none" xmlns="http://www.w3.org/2000/svg">
<path d="M38.4544 12.5938L32.5 8.89813V1.875C32.5 1.70924 32.4342 1.55027 32.3169 1.43306C32.1997 1.31585 32.0408 1.25 31.875 1.25H26.875C26.7092 1.25 26.5503 1.31585 26.4331 1.43306C26.3158 1.55027 26.25 1.70924 26.25 1.875V5.01875L20.3294 1.34375C20.1275 1.21875 19.8725 1.21875 19.67 1.34375L1.545 12.5938C1.45482 12.65 1.38043 12.7283 1.32883 12.8212C1.27722 12.9142 1.2501 13.0187 1.25 13.125V16.875H1.25437C1.25437 16.9319 1.2575 16.9894 1.27375 17.0463C1.31099 17.177 1.38984 17.292 1.49834 17.3739C1.60684 17.4558 1.73907 17.5 1.875 17.5H3.75V38.125C3.75 38.2908 3.81585 38.4497 3.93306 38.5669C4.05027 38.6842 4.20924 38.75 4.375 38.75H35.625C35.7908 38.75 35.9497 38.6842 36.0669 38.5669C36.1842 38.4497 36.25 38.2908 36.25 38.125V31.25H36.875C37.9087 31.25 38.75 30.4088 38.75 29.375V21.875C38.75 20.8412 37.9087 20 36.875 20H36.25V17.5H38.125C38.2609 17.5 38.3932 17.4558 38.5017 17.3739C38.6102 17.292 38.689 17.177 38.7262 17.0463C38.7407 16.9904 38.7472 16.9327 38.7456 16.875H38.75V13.125C38.75 12.9087 38.6381 12.7081 38.4544 12.5938ZM27.5 2.5H31.25V8.12187L27.5 5.79437V2.5ZM20 2.61063L37.5 13.4725V15.7512L20.3294 5.09375C20.1275 4.96875 19.8725 4.96875 19.67 5.09375L2.5 15.7512V13.4725L20 2.61063ZM4.06687 16.25L20 6.36063L35.9331 16.25H4.06687ZM15 37.5H8.75V25.625H15V37.5ZM28.75 31.25V37.5H27.5V31.25H28.75ZM35 37.5H30V31.25H35V37.5ZM37.5 21.875V22.5H35.625V23.75H37.5V25H34.375V26.25H37.5V29.375C37.5 29.7194 37.2194 30 36.875 30H19.375C19.0306 30 18.75 29.7194 18.75 29.375V28.75H21.875V27.5H18.75V26.25H23.75V25H18.75V21.875C18.75 21.5306 19.0306 21.25 19.375 21.25H36.875C37.2194 21.25 37.5 21.5306 37.5 21.875ZM35 20H19.375C18.3412 20 17.5 20.8412 17.5 21.875V29.375C17.5 30.4088 18.3412 31.25 19.375 31.25H26.25V37.5H16.25V25C16.25 24.8342 16.1842 24.6753 16.0669 24.5581C15.9497 24.4408 15.7908 24.375 15.625 24.375H8.125C7.95924 24.375 7.80027 24.4408 7.68306 24.5581C7.56585 24.6753 7.5 24.8342 7.5 25V37.5H5V17.5H35V20Z" fill="#FF6647"/>
<path d="M16.875 11.875C16.875 13.5981 18.2769 15 20 15C21.7231 15 23.125 13.5981 23.125 11.875C23.125 10.1519 21.7231 8.75 20 8.75C18.2769 8.75 16.875 10.1519 16.875 11.875ZM21.875 11.875C21.875 12.9088 21.0337 13.75 20 13.75C18.9663 13.75 18.125 12.9088 18.125 11.875C18.125 10.8412 18.9663 10 20 10C21.0337 10 21.875 10.8412 21.875 11.875ZM10 30.625H11.25V31.875H10V30.625ZM26.875 28.125H27.5V28.75H28.75V28.125H29.375C29.5408 28.125 29.6997 28.0592 29.8169 27.9419C29.9342 27.8247 30 27.6658 30 27.5V25.625C30 25.4592 29.9342 25.3003 29.8169 25.1831C29.6997 25.0658 29.5408 25 29.375 25H27.5V24.375H30V23.75C30 23.5842 29.9342 23.4253 29.8169 23.3081C29.6997 23.1908 29.5408 23.125 29.375 23.125H28.75V22.5H27.5V23.125H26.875C26.7092 23.125 26.5503 23.1908 26.4331 23.3081C26.3158 23.4253 26.25 23.5842 26.25 23.75V25.625C26.25 25.7908 26.3158 25.9497 26.4331 26.0669C26.5503 26.1842 26.7092 26.25 26.875 26.25H28.75V26.875H26.25V27.5C26.25 27.6658 26.3158 27.8247 26.4331 27.9419C26.5503 28.0592 26.7092 28.125 26.875 28.125ZM33.125 22.5H34.375V23.75H33.125V22.5Z" fill="#FF6647"/>
</svg>
