<svg width="40" height="40" viewBox="0 0 40 40" fill="none" xmlns="http://www.w3.org/2000/svg">
<path d="M37.5 5H22.5V3.75C22.5 2.37125 21.3787 1.25 20 1.25C18.6213 1.25 17.5 2.37125 17.5 3.75V5H2.5C1.81062 5 1.25 5.56063 1.25 6.25V7.5C1.25 8.18937 1.81062 8.75 2.5 8.75H3.125V25H4.375V8.75H35.625V27.5H4.375V26.25H3.125V28.125C3.125 28.2908 3.19085 28.4497 3.30806 28.5669C3.42527 28.6842 3.58424 28.75 3.75 28.75H10V30C10 30.6894 10.5606 31.25 11.25 31.25H14.1081L11.9131 37.2863C11.888 37.3547 11.8751 37.4271 11.875 37.5C11.875 38.1894 12.4356 38.75 13.125 38.75H14.375C14.6842 38.7496 14.9823 38.6348 15.2119 38.4277C15.4414 38.2205 15.5862 37.9357 15.6181 37.6281L17.9375 31.25H18.125V37.5C18.125 38.1894 18.6856 38.75 19.375 38.75H20.625C21.3144 38.75 21.875 38.1894 21.875 37.5V31.25H22.0625L24.3819 37.6281C24.4138 37.9357 24.5586 38.2205 24.7881 38.4277C25.0177 38.6348 25.3158 38.7496 25.625 38.75H26.875C27.5644 38.75 28.125 38.1894 28.125 37.5C28.1249 37.4271 28.112 37.3547 28.0869 37.2863L25.8919 31.25H28.75C29.4394 31.25 30 30.6894 30 30V28.75H36.25C36.4158 28.75 36.5747 28.6842 36.6919 28.5669C36.8092 28.4497 36.875 28.2908 36.875 28.125V8.75H37.5C38.1894 8.75 38.75 8.18937 38.75 7.5V6.25C38.75 5.56063 38.1894 5 37.5 5ZM14.4131 37.2863C14.388 37.3547 14.3751 37.4271 14.375 37.5H13.165L15.4375 31.25H16.6075L14.4131 37.2863ZM20.625 37.5H19.375V31.25H20.625V37.5ZM26.835 37.5H25.625C25.6249 37.4271 25.612 37.3547 25.5869 37.2863L23.3919 31.25H24.5625L26.835 37.5ZM28.75 30H11.25V28.75H28.75V30ZM18.75 3.75C18.75 3.06062 19.3106 2.5 20 2.5C20.6894 2.5 21.25 3.06062 21.25 3.75V5H18.75V3.75ZM2.5 7.5V6.25H37.5L37.5006 7.5H2.5Z" fill="#FF6647"/>
<path d="M19.375 10.6251C19.375 10.4593 19.3092 10.3003 19.1919 10.1831C19.0747 10.0659 18.9158 10.0001 18.75 10.0001H6.25C6.08424 10.0001 5.92527 10.0659 5.80806 10.1831C5.69085 10.3003 5.625 10.4593 5.625 10.6251V19.3751C5.625 19.5408 5.69085 19.6998 5.80806 19.817C5.92527 19.9342 6.08424 20.0001 6.25 20.0001H18.75C18.9158 20.0001 19.0747 19.9342 19.1919 19.817C19.3092 19.6998 19.375 19.5408 19.375 19.3751V10.6251ZM18.125 15.0001H11.25V11.2501H18.125V15.0001ZM10 11.2501V15.0001H6.875V11.2501H10ZM6.875 16.2501H14.375V18.7501H6.875V16.2501ZM15.625 18.7501V16.2501H18.125V18.7501H15.625ZM5.625 21.2501H10V22.5001H5.625V21.2501ZM11.25 21.2501H19.375V22.5001H11.25V21.2501ZM5.625 23.7501H19.375V25.0001H5.625V23.7501ZM21.875 25.0001H33.125C33.2908 25.0001 33.4497 24.9342 33.5669 24.817C33.6842 24.6998 33.75 24.5408 33.75 24.3751V16.2501C33.8794 16.2498 34.0055 16.2093 34.1109 16.1344C34.2164 16.0595 34.296 15.9537 34.3388 15.8316C34.3817 15.7095 34.3856 15.5772 34.3501 15.4528C34.3146 15.3284 34.2414 15.218 34.1406 15.1369L27.8906 10.1369C27.7797 10.0483 27.642 10 27.5 10C27.358 10 27.2203 10.0483 27.1094 10.1369L20.8594 15.1369C20.7582 15.2178 20.6847 15.3282 20.6489 15.4527C20.6132 15.5772 20.6171 15.7098 20.66 15.832C20.7029 15.9543 20.7827 16.0601 20.8884 16.135C20.9941 16.2099 21.1205 16.2501 21.25 16.2501V24.3751C21.25 24.5408 21.3158 24.6998 21.4331 24.817C21.5503 24.9342 21.7092 25.0001 21.875 25.0001ZM28.75 23.7501H26.25V20.0001H28.75V23.7501ZM27.5 11.4257L31.9681 15.0001H23.0319L27.5 11.4257ZM32.5 16.2501V23.7501H30V19.3751C30 19.2093 29.9342 19.0503 29.8169 18.9331C29.6997 18.8159 29.5408 18.7501 29.375 18.7501H25.625C25.4592 18.7501 25.3003 18.8159 25.1831 18.9331C25.0658 19.0503 25 19.2093 25 19.3751V23.7501H22.5V16.2501H32.5Z" fill="#FF6647"/>
</svg>
