<svg width="33" height="33" viewBox="0 0 33 33" fill="none" xmlns="http://www.w3.org/2000/svg">
<path d="M19.1891 2.76507C19.3176 2.28484 19.6316 1.87532 20.0621 1.62656C20.4925 1.37779 21.0041 1.31015 21.4844 1.4385C23.9084 2.07001 26.1202 3.33672 27.8914 5.108C29.6627 6.87928 30.9294 9.09101 31.5609 11.5151C31.6304 11.7547 31.6513 12.0058 31.6225 12.2536C31.5937 12.5015 31.5157 12.741 31.3931 12.9583C31.2705 13.1756 31.1057 13.3663 30.9085 13.5191C30.7113 13.6719 30.4856 13.7839 30.2445 13.8483C30.0035 13.9128 29.752 13.9285 29.5049 13.8945C29.2577 13.8606 29.0198 13.7776 28.8051 13.6506C28.5903 13.5235 28.4032 13.3548 28.2545 13.1545C28.1057 12.9541 27.9985 12.7261 27.9391 12.4838C27.4734 10.6982 26.5401 9.06905 25.2352 7.76421C23.9304 6.45937 22.3012 5.52603 20.5156 5.06038C20.0354 4.93182 19.6259 4.61781 19.3771 4.18738C19.1284 3.75695 19.0607 3.24535 19.1891 2.76507ZM32.8516 24.4338C32.5536 26.702 31.4402 28.7841 29.7193 30.2914C27.9984 31.7987 25.7877 32.628 23.5 32.6244C10.7484 32.6244 0.375011 22.251 0.375011 9.49944C0.371466 7.21179 1.20077 5.00106 2.70804 3.28015C4.21531 1.55924 6.29746 0.445838 8.56563 0.14788C9.23394 0.066671 9.91063 0.202907 10.4954 0.536404C11.0803 0.869901 11.5421 1.38292 11.8125 1.99944L15.1109 9.3635C15.1145 9.37316 15.1186 9.38256 15.1234 9.39163C15.3262 9.86541 15.4085 10.382 15.3633 10.8953C15.318 11.4086 15.1465 11.9028 14.8641 12.3338C14.8239 12.3966 14.7795 12.4566 14.7313 12.5135L11.7531 16.0619C12.8563 18.0682 14.9563 20.1494 16.9859 21.251L20.4719 18.2823C20.5278 18.2354 20.5863 18.1916 20.6469 18.151C21.0794 17.8608 21.5779 17.6838 22.0966 17.6363C22.6153 17.5888 23.1376 17.6723 23.6156 17.8791L23.6438 17.8916L31 21.1869C31.6164 21.4576 32.1292 21.9194 32.4627 22.5042C32.7962 23.089 32.9325 23.7655 32.8516 24.4338ZM29.0531 24.4244L22.4906 21.4854L18.9859 24.4651C18.9308 24.5128 18.8729 24.5571 18.8125 24.5979C18.362 24.8966 17.8417 25.0733 17.3025 25.1109C16.7632 25.1484 16.2235 25.0454 15.7359 24.8119C12.6922 23.3432 9.65939 20.3307 8.18751 17.3119C7.95345 16.8266 7.84886 16.289 7.8839 15.7513C7.91895 15.2136 8.09243 14.6941 8.38751 14.2432C8.42825 14.1804 8.47314 14.1203 8.52188 14.0635L11.5156 10.5135L8.57501 3.95101C7.31159 4.22943 6.18136 4.93153 5.37192 5.94077C4.56248 6.95001 4.1225 8.20571 4.12501 9.49944C4.13121 14.6361 6.17449 19.5606 9.80667 23.1928C13.4388 26.825 18.3633 28.8682 23.5 28.8744C24.7945 28.878 26.0513 28.4385 27.0615 27.629C28.0717 26.8195 28.7745 25.6887 29.0531 24.4244ZM18.7547 10.9791C19.5215 11.2208 20.2187 11.6438 20.7871 12.2123C21.3556 12.7808 21.7786 13.478 22.0203 14.2448C22.14 14.6252 22.3778 14.9576 22.6992 15.1936C23.0207 15.4296 23.409 15.557 23.8078 15.5573C23.9991 15.557 24.1892 15.5281 24.3719 15.4713C24.8443 15.3218 25.2384 14.9914 25.468 14.5522C25.6975 14.113 25.7439 13.6008 25.5969 13.1276C25.174 11.785 24.4335 10.5643 23.4382 9.56902C22.443 8.57373 21.2222 7.83323 19.8797 7.41038C19.6434 7.3311 19.3937 7.29971 19.1452 7.31806C18.8966 7.33641 18.6542 7.40413 18.4321 7.51726C18.2101 7.63039 18.0128 7.78665 17.8518 7.97691C17.6908 8.16718 17.5694 8.38763 17.4946 8.62537C17.4198 8.86311 17.3932 9.11338 17.4163 9.36154C17.4393 9.60969 17.5116 9.85076 17.629 10.0706C17.7463 10.2905 17.9063 10.4848 18.0996 10.6421C18.2929 10.7995 18.5156 10.9167 18.7547 10.9869V10.9791Z" fill="white"/>
</svg>
