<svg width="80" height="80" viewBox="0 0 80 80" fill="none" xmlns="http://www.w3.org/2000/svg">
<path d="M45.3584 57.8747C45.2422 57.9935 45.1507 58.1343 45.0893 58.2888C45.0279 58.4433 44.9979 58.6085 45.0009 58.7747L45.1847 68.0522C45.2175 69.8841 44.5225 71.6543 43.2522 72.9747C42.67 73.5828 41.9713 74.0675 41.1977 74.3997C40.4241 74.7319 39.5916 74.905 38.7497 74.9084H13.7509C11.5409 74.9084 9.48219 73.9197 8.09969 72.1972C6.71719 70.4747 6.19844 68.2472 6.67594 66.0922C6.82594 65.4234 6.90469 64.7347 6.90969 64.0422L8.74469 46.2872C8.74844 46.2447 8.75094 46.2009 8.75094 46.1584C8.75094 40.1372 11.8084 34.8172 16.4522 31.6672C20.3984 31.0534 24.0709 29.6822 25.7847 28.9722C27.0997 30.8597 30.4284 35.0534 34.6984 36.1209L35.3034 33.6959C32.6272 33.0272 30.2897 30.6609 28.8472 28.8772C32.8769 29.4774 36.5716 31.4629 39.2959 34.4922L41.1584 32.8247C38.922 30.3377 36.0981 28.4506 32.9447 27.3359C35.29 26.3694 37.3964 24.9031 39.117 23.0392C40.8376 21.1752 42.1311 18.9585 42.9072 16.5434L40.5297 15.7747C39.7307 18.2592 38.295 20.4912 36.3656 22.2487C34.4362 24.0062 32.0803 25.2278 29.5322 25.7922C31.4592 23.4237 32.5081 20.4618 32.5009 17.4084H30.0009C30.0009 20.2984 28.8759 23.0159 26.8322 25.0609L25.7584 26.1334C25.6647 26.1309 25.5722 26.1247 25.4797 26.1197L23.2784 23.9197C22.323 22.9585 21.6311 21.7674 21.2695 20.4613C20.9078 19.1552 20.8885 17.7779 21.2134 16.4622L18.7897 15.8559C17.9609 19.1672 18.8622 22.6972 21.1147 25.2334C15.3684 23.1284 11.2509 17.6222 11.2509 11.1584V9.69343C11.2509 8.91843 11.8422 8.61342 12.0222 8.53842C12.25 8.44039 12.5021 8.41371 12.7454 8.46191C12.9886 8.51012 13.2115 8.63093 13.3847 8.80843L15.9584 11.3822C16.3224 11.7493 16.759 12.0365 17.2403 12.2252C17.7215 12.414 18.2369 12.5002 18.7534 12.4784C19.2695 12.4581 19.7758 12.3316 20.2408 12.1069C20.7058 11.8821 21.1194 11.5639 21.4559 11.1722L25.3022 6.68592C25.7834 6.12342 26.7172 6.12342 27.2009 6.68592L31.0447 11.1722C31.3815 11.5639 31.7954 11.882 32.2606 12.1067C32.7258 12.3314 33.2322 12.458 33.7484 12.4784C34.2649 12.4998 34.7802 12.4134 35.2614 12.2247C35.7426 12.0359 36.1792 11.749 36.5434 11.3822L39.1172 8.80843C39.29 8.63033 39.5129 8.50909 39.7563 8.46086C39.9997 8.41263 40.252 8.43968 40.4797 8.53842C40.6597 8.61342 41.2509 8.91843 41.2509 9.69343V11.1572C41.2509 11.9359 41.1909 12.7122 41.0734 13.4647L43.5447 13.8497C43.6809 12.9709 43.7509 12.0647 43.7509 11.1584V9.69343C43.7509 8.14843 42.8634 6.82092 41.4347 6.22842C40.7508 5.93751 39.9951 5.85943 39.2662 6.00436C38.5373 6.1493 37.869 6.51052 37.3484 7.04092L34.7759 9.61468C34.6554 9.73828 34.5098 9.83477 34.349 9.89771C34.1882 9.96065 34.0159 9.98859 33.8434 9.97968C33.6712 9.97353 33.502 9.93157 33.3469 9.85646C33.1917 9.78135 33.0539 9.67474 32.9422 9.54343L29.0984 5.05718C28.7461 4.64702 28.3092 4.31786 27.8178 4.09224C27.3264 3.86663 26.792 3.74988 26.2513 3.75C25.7105 3.75012 25.1762 3.8671 24.6849 4.09293C24.1936 4.31876 23.7569 4.64811 23.4047 5.05842L19.5584 9.54468C19.447 9.67601 19.3094 9.78265 19.1545 9.85777C18.9995 9.93289 18.8306 9.97484 18.6584 9.98093C18.4861 9.98865 18.3141 9.96016 18.1535 9.89729C17.9929 9.83442 17.8472 9.73857 17.7259 9.61592L15.1522 7.04217C14.632 6.51118 13.9637 6.14955 13.2346 6.00458C12.5055 5.85962 11.7497 5.93807 11.0659 6.22968C10.3763 6.50693 9.78633 6.98588 9.37329 7.60388C8.96025 8.22188 8.74334 8.95015 8.75094 9.69343V11.1572C8.75094 18.4434 13.2284 24.6972 19.5747 27.3272C18.1754 27.8234 16.8362 28.475 15.5822 29.2697C11.6659 29.7997 7.83844 29.4109 6.04094 26.7147L3.96094 28.1009C5.80344 30.8647 8.87344 31.8647 12.1734 31.9672C10.3037 33.8151 8.81788 36.0145 7.80146 38.4388C6.78504 40.8632 6.25809 43.4646 6.25094 46.0934L4.41469 63.8472C4.41074 63.89 4.40865 63.9329 4.40844 63.9759C4.40844 64.5059 4.34969 65.0347 4.23469 65.5484C3.91519 66.9733 3.92135 68.4519 4.2527 69.874C4.58406 71.2962 5.23206 72.6253 6.14844 73.7622C7.05931 74.9029 8.21595 75.8232 9.5321 76.4545C10.8483 77.0859 12.2899 77.4119 13.7497 77.4084H38.8697C41.1972 77.3809 43.3909 76.4234 45.0472 74.7147C46.7796 72.9147 47.7276 70.5013 47.6834 68.0034L47.5272 59.9997H77.5009V57.4997H46.2509C46.0847 57.4996 45.9201 57.5328 45.7669 57.5972C45.6136 57.6616 45.4748 57.7559 45.3584 57.8747Z" fill="#FF6647"/>
<path d="M26.25 38.6589C17.9787 38.6589 11.25 45.3877 11.25 53.6589C11.25 61.9302 17.9787 68.6589 26.25 68.6589C34.5213 68.6589 41.25 61.9302 41.25 53.6589C41.25 45.3877 34.5213 38.6589 26.25 38.6589ZM13.75 53.6589C13.75 47.1877 18.6925 41.8514 25 41.2227V43.7227C22.195 44.0377 20 46.3964 20 49.2839C20 52.3852 22.5238 54.9089 25.625 54.9089H26.875C28.5987 54.9089 30 56.3114 30 58.0339C30 59.7564 28.5987 61.1589 26.875 61.1589H25.625C24.7965 61.1579 24.0022 60.8284 23.4164 60.2425C22.8306 59.6567 22.501 58.8624 22.5 58.0339V57.4089H20V58.0339C20 60.9214 22.195 63.2802 25 63.5952V66.0952C18.6925 65.4664 13.75 60.1289 13.75 53.6589ZM27.5 66.0952V63.5952C30.305 63.2802 32.5 60.9214 32.5 58.0339C32.5 54.9327 29.9762 52.4089 26.875 52.4089H25.625C23.9013 52.4089 22.5 51.0064 22.5 49.2839C22.5 47.5614 23.9013 46.1589 25.625 46.1589H26.875C28.5987 46.1589 30 47.5614 30 49.2839V49.9089H32.5V49.2839C32.5 46.3964 30.305 44.0377 27.5 43.7227V41.2227C33.8075 41.8514 38.75 47.1889 38.75 53.6589C38.75 60.1289 33.8075 65.4664 27.5 66.0952ZM76.645 40.0639L70 37.8489V36.2502H71.25C71.514 36.2502 71.7712 36.1667 71.9848 36.0116C72.1984 35.8564 72.3574 35.6376 72.439 35.3866C72.5206 35.1355 72.5206 34.8651 72.4391 34.614C72.3575 34.3629 72.1986 34.1441 71.985 33.9889L68.75 31.6364V25.0002C68.75 24.6687 68.6183 24.3507 68.3839 24.1163C68.1495 23.8819 67.8315 23.7502 67.5 23.7502H62.5C62.1685 23.7502 61.8505 23.8819 61.6161 24.1163C61.3817 24.3507 61.25 24.6687 61.25 25.0002V26.1814L58.235 23.9889C58.0214 23.8336 57.7641 23.75 57.5 23.75C57.2359 23.75 56.9786 23.8336 56.765 23.9889L43.015 33.9889C42.8006 34.1437 42.6409 34.3625 42.5588 34.6138C42.4768 34.8651 42.4766 35.136 42.5583 35.3874C42.64 35.6389 42.7995 35.8579 43.0136 36.0129C43.2278 36.168 43.4856 36.251 43.75 36.2502H45V52.5002C45 52.8317 45.1317 53.1496 45.3661 53.3841C45.6005 53.6185 45.9185 53.7502 46.25 53.7502H76.25C76.5815 53.7502 76.8995 53.6185 77.1339 53.3841C77.3683 53.1496 77.5 52.8317 77.5 52.5002V41.2502C77.5001 40.9877 77.4175 40.7319 77.2641 40.519C77.1106 40.3061 76.894 40.1469 76.645 40.0639ZM57.5 26.5452L61.765 29.6464C61.9514 29.7819 62.1717 29.8633 62.4014 29.8815C62.6312 29.8996 62.8615 29.8539 63.0669 29.7494C63.2723 29.6449 63.4448 29.4856 63.5653 29.2892C63.6859 29.0928 63.7498 28.8669 63.75 28.6364V26.2502H66.25V32.2727C66.25 32.4699 66.2966 32.6644 66.3861 32.8401C66.4756 33.0159 66.6055 33.168 66.765 33.2839L67.4062 33.7502H47.5938L57.5 26.5452ZM60 51.2502H55V43.7502H60V51.2502ZM62.5 51.2502V42.5002C62.5 42.1687 62.3683 41.8507 62.1339 41.6163C61.8995 41.3819 61.5815 41.2502 61.25 41.2502H53.75C53.4185 41.2502 53.1005 41.3819 52.8661 41.6163C52.6317 41.8507 52.5 42.1687 52.5 42.5002V51.2502H47.5V36.2502H67.5V51.2502H62.5ZM75 51.2502H70V40.4852L75 42.1514V51.2502Z" fill="#FF6647"/>
</svg>
