<svg width="80" height="80" viewBox="0 0 80 80" fill="none" xmlns="http://www.w3.org/2000/svg">
<path d="M32.8588 46.615L45.3562 34.1175L47.1238 35.885L34.6263 48.3825L32.8588 46.615ZM45 41.25C42.9325 41.25 41.25 42.9325 41.25 45C41.25 47.0675 42.9325 48.75 45 48.75C47.0675 48.75 48.75 47.0675 48.75 45C48.75 42.9325 47.0675 41.25 45 41.25ZM45 46.25C44.6685 46.25 44.3505 46.1183 44.1161 45.8839C43.8817 45.6495 43.75 45.3315 43.75 45C43.75 44.6685 43.8817 44.3505 44.1161 44.1161C44.3505 43.8817 44.6685 43.75 45 43.75C45.3315 43.75 45.6495 43.8817 45.8839 44.1161C46.1183 44.3505 46.25 44.6685 46.25 45C46.25 45.3315 46.1183 45.6495 45.8839 45.8839C45.6495 46.1183 45.3315 46.25 45 46.25ZM38.75 37.5C38.75 35.4325 37.0675 33.75 35 33.75C32.9325 33.75 31.25 35.4325 31.25 37.5C31.25 39.5675 32.9325 41.25 35 41.25C37.0675 41.25 38.75 39.5675 38.75 37.5ZM33.75 37.5C33.75 37.1685 33.8817 36.8505 34.1161 36.6161C34.3505 36.3817 34.6685 36.25 35 36.25C35.3315 36.25 35.6495 36.3817 35.8839 36.6161C36.1183 36.8505 36.25 37.1685 36.25 37.5C36.25 37.8315 36.1183 38.1495 35.8839 38.3839C35.6495 38.6183 35.3315 38.75 35 38.75C34.6685 38.75 34.3505 38.6183 34.1161 38.3839C33.8817 38.1495 33.75 37.8315 33.75 37.5Z" fill="#FF6647"/>
<path d="M52.4967 21.2491H47.4967C47.1652 21.2491 46.8472 21.3808 46.6128 21.6152C46.3784 21.8496 46.2467 22.1676 46.2467 22.4991V24.6478L40.7779 20.2728C40.5558 20.0962 40.2805 20 39.9967 20C39.7129 20 39.4375 20.0962 39.2154 20.2728L20.4654 35.2728C20.2631 35.4346 20.116 35.6553 20.0446 35.9044C19.9731 36.1534 19.9808 36.4185 20.0666 36.663C20.1524 36.9075 20.312 37.1192 20.5235 37.269C20.7349 37.4188 20.9876 37.4992 21.2467 37.4991H22.4967V53.7491C22.4967 54.0806 22.6284 54.3985 22.8628 54.633C23.0972 54.8674 23.4152 54.9991 23.7467 54.9991H56.2467C56.5782 54.9991 56.8961 54.8674 57.1306 54.633C57.365 54.3985 57.4967 54.0806 57.4967 53.7491V37.4991H58.7467C59.0058 37.4992 59.2585 37.4188 59.4699 37.269C59.6813 37.1192 59.841 36.9075 59.9267 36.663C60.0125 36.4185 60.0202 36.1534 59.9488 35.9044C59.8774 35.6553 59.7303 35.4346 59.5279 35.2728L53.7467 30.6491V22.4991C53.7467 22.1676 53.615 21.8496 53.3806 21.6152C53.1461 21.3808 52.8282 21.2491 52.4967 21.2491ZM55.4954 35.2491C55.3405 35.3657 55.2148 35.5168 55.1282 35.6903C55.0417 35.8638 54.9966 36.0551 54.9967 36.2491V52.4991H24.9967V36.2491C24.9967 35.8403 24.8004 35.4778 24.4979 35.2491L39.9967 22.8491L46.7154 28.2253C46.8994 28.372 47.1211 28.4639 47.3549 28.4903C47.5888 28.5167 47.8253 28.4766 48.0375 28.3747C48.2496 28.2728 48.4286 28.1131 48.5541 27.914C48.6795 27.7149 48.7463 27.4844 48.7467 27.2491V23.7491H51.2467V31.2491C51.2466 31.4365 51.2887 31.6216 51.3698 31.7906C51.451 31.9596 51.5691 32.1082 51.7154 32.2253L55.4954 35.2491Z" fill="#FF6647"/>
<path d="M76.9762 8.98375L68.2262 2.73375C68.0144 2.58205 67.7605 2.50033 67.5 2.5H12.5C12.1685 2.5 11.8505 2.6317 11.6161 2.86612C11.3817 3.10054 11.25 3.41848 11.25 3.75V46.25H13.75V5H63.6L58.0238 8.98375C57.8078 9.13736 57.6464 9.35566 57.5628 9.60708C57.4791 9.8585 57.4776 10.13 57.5585 10.3823C57.6394 10.6347 57.7984 10.8547 58.0126 11.0107C58.2268 11.1667 58.485 11.2505 58.75 11.25H61.25V20C61.25 20.3315 61.3817 20.6495 61.6161 20.8839C61.8505 21.1183 62.1685 21.25 62.5 21.25H72.5C72.8315 21.25 73.1495 21.1183 73.3839 20.8839C73.6183 20.6495 73.75 20.3315 73.75 20V11.25H76.25C76.5146 11.2497 76.7722 11.1654 76.9858 11.0093C77.1995 10.8532 77.3581 10.6334 77.4388 10.3815C77.5195 10.1295 77.5182 9.85846 77.4351 9.60729C77.352 9.35612 77.1913 9.1378 76.9762 8.98375ZM71.25 10V18.75H63.75V10C63.7501 9.69247 63.6367 9.3957 63.4317 9.16647C63.2267 8.93724 62.9444 8.79164 62.6387 8.7575L67.5 5.28625L72.3613 8.7575C72.0556 8.79164 71.7733 8.93724 71.5683 9.16647C71.3633 9.3957 71.2499 9.69247 71.25 10Z" fill="#FF6647"/>
<path d="M61.25 23.75H73.75V26.25H61.25V23.75ZM61.25 28.75H73.75V31.25H61.25V28.75ZM6.25 53.75H18.75V56.25H6.25V53.75ZM6.25 48.75H18.75V51.25H6.25V48.75Z" fill="#FF6647"/>
<path d="M66.2484 75H16.3984L21.9747 71.0163C22.1906 70.8626 22.352 70.6443 22.4357 70.3929C22.5193 70.1415 22.5208 69.87 22.4399 69.6177C22.3591 69.3653 22.2 69.1453 21.9858 68.9893C21.7716 68.8333 21.5134 68.7495 21.2484 68.75H18.7484V60C18.7484 59.6685 18.6167 59.3505 18.3823 59.1161C18.1479 58.8817 17.8299 58.75 17.4984 58.75H7.49842C7.1669 58.75 6.84896 58.8817 6.61454 59.1161C6.38012 59.3505 6.24842 59.6685 6.24842 60V68.75H3.74842C3.48386 68.7503 3.22622 68.8346 3.01259 68.9907C2.79897 69.1468 2.64037 69.3666 2.55963 69.6185C2.47889 69.8705 2.48017 70.1415 2.56329 70.3927C2.64641 70.6439 2.80708 70.8622 3.02217 71.0163L11.7722 77.2663C11.9837 77.4185 12.2378 77.5003 12.4984 77.5H67.4984C67.8299 77.5 68.1479 77.3683 68.3823 77.1339C68.6167 76.8995 68.7484 76.5815 68.7484 76.25V33.75H66.2484V75ZM7.63717 71.2425C7.94281 71.2084 8.22513 71.0628 8.43014 70.8335C8.63516 70.6043 8.74848 70.3075 8.74842 70V61.25H16.2484V70C16.2484 70.3075 16.3617 70.6043 16.5667 70.8335C16.7717 71.0628 17.054 71.2084 17.3597 71.2425L12.4984 74.7137L7.63717 71.2425Z" fill="#FF6647"/>
</svg>
