<svg width="80" height="80" viewBox="0 0 80 80" fill="none" xmlns="http://www.w3.org/2000/svg">
<path d="M76.25 2.5H3.75C3.41848 2.5 3.10054 2.6317 2.86612 2.86612C2.6317 3.10054 2.5 3.41848 2.5 3.75V58.75C2.5 59.0815 2.6317 59.3995 2.86612 59.6339C3.10054 59.8683 3.41848 60 3.75 60H8.75V57.5H5V25H42.5C42.8315 25 43.1495 24.8683 43.3839 24.6339C43.6183 24.3995 43.75 24.0815 43.75 23.75V5H47.5V26.25C47.4999 26.4982 47.5736 26.7408 47.7118 26.947C47.8501 27.1531 48.0466 27.3134 48.2762 27.4075L75 38.34V45.6338L55.4762 37.595C55.3255 37.5318 55.1635 37.4995 55 37.5H48.75C48.4185 37.5 48.1005 37.6317 47.8661 37.8661C47.6317 38.1005 47.5 38.4185 47.5 38.75V48.75H50V40H54.7525L75 48.3375V57.5H53.75V60H76.25C76.5815 60 76.8995 59.8683 77.1339 59.6339C77.3683 59.3995 77.5 59.0815 77.5 58.75V3.75C77.5 3.41848 77.3683 3.10054 77.1339 2.86612C76.8995 2.6317 76.5815 2.5 76.25 2.5ZM5 5H20V22.5H5V5ZM41.25 22.5H22.5V5H41.25V22.5ZM50 25.4113V5H75V35.6375L50 25.4113Z" fill="#FF6647"/>
<path d="M45 46.25C45 35.9113 36.5887 27.5 26.25 27.5C15.9113 27.5 7.5 35.9113 7.5 46.25C7.5 56.5887 15.9113 65 26.25 65C30.01 65 33.5075 63.8775 36.4462 61.9637L38.2325 63.75L34.1162 67.8662L35.8838 69.6338L36.875 68.6425L43.295 75.0637C44.0661 75.8385 44.9831 76.4527 45.993 76.8708C47.0029 77.289 48.0857 77.5028 49.1787 77.5C51.385 77.4977 53.5002 76.6202 55.0602 75.0602C56.6202 73.5002 57.4977 71.385 57.5 69.1787C57.5034 68.0855 57.2896 67.0025 56.8712 65.9925C56.4528 64.9825 55.838 64.0656 55.0625 63.295L48.6425 56.875L49.6338 55.8838L47.8662 54.1162L43.75 58.2325L41.9637 56.4463C43.9458 53.4151 45.001 49.8717 45 46.25ZM10 46.25C10 37.29 17.29 30 26.25 30C35.21 30 42.5 37.29 42.5 46.25C42.5 55.21 35.21 62.5 26.25 62.5C17.29 62.5 10 55.21 10 46.25ZM53.295 65.0637C53.8374 65.6027 54.2674 66.2439 54.5601 66.9503C54.8528 67.6567 55.0023 68.4141 55 69.1787C54.9983 70.7221 54.3845 72.2018 53.2932 73.2932C52.2018 74.3845 50.7221 74.9983 49.1787 75C48.414 75.0021 47.6564 74.8524 46.9499 74.5598C46.2433 74.2671 45.6018 73.8372 45.0625 73.295L38.6425 66.875L46.875 58.6425L53.295 65.0637ZM41.9825 60L40 61.9825L38.4637 60.4462C39.1724 59.8351 39.8351 59.1724 40.4462 58.4637L41.9825 60Z" fill="#FF6647"/>
<path d="M26.25 32.5C18.6687 32.5 12.5 38.6687 12.5 46.25C12.5 53.8312 18.6687 60 26.25 60C33.8312 60 40 53.8312 40 46.25C40 38.6687 33.8312 32.5 26.25 32.5ZM26.25 57.5C20.0463 57.5 15 52.4525 15 46.25C15 40.0475 20.0463 35 26.25 35C32.4538 35 37.5 40.0475 37.5 46.25C37.5 52.4525 32.4538 57.5 26.25 57.5Z" fill="#FF6647"/>
<path d="M34.5522 44.0381L27.8522 38.4543C27.4026 38.08 26.836 37.875 26.2509 37.875C25.6659 37.875 25.0993 38.08 24.6497 38.4543L17.9509 44.0368C17.7532 44.2012 17.611 44.4225 17.5437 44.6706C17.4763 44.9187 17.4871 45.1816 17.5746 45.4234C17.662 45.6651 17.8219 45.874 18.0324 46.0216C18.2429 46.1692 18.4938 46.2483 18.7509 46.2481H20.0009V49.9981C20.0009 51.3769 21.1222 52.4981 22.5009 52.4981H30.0009C31.3797 52.4981 32.5009 51.3769 32.5009 49.9981V46.2481H33.7509C34.0078 46.2482 34.2586 46.1692 34.469 46.0218C34.6794 45.8744 34.8392 45.6657 34.9268 45.4242C35.0143 45.1826 35.0254 44.92 34.9583 44.672C34.8913 44.424 34.7495 44.2026 34.5522 44.0381ZM30.0009 46.2481V49.9981H27.5009V46.2481H25.0009V49.9981H22.5009V46.2481C22.5009 45.4556 22.1297 44.7481 21.5534 44.2906L26.2509 40.3756L30.9484 44.2906C30.6531 44.5243 30.4144 44.8217 30.2503 45.1607C30.0862 45.4997 30.001 45.8715 30.0009 46.2481ZM69.5522 12.7881L62.8522 7.20435C62.4026 6.82999 61.836 6.625 61.2509 6.625C60.6659 6.625 60.0993 6.82999 59.6497 7.20435L52.9509 12.7868C52.7532 12.9512 52.611 13.1725 52.5437 13.4206C52.4763 13.6687 52.4871 13.9316 52.5746 14.1734C52.662 14.4151 52.8219 14.624 53.0324 14.7716C53.2429 14.9192 53.4938 14.9983 53.7509 14.9981H55.0009V18.7481C55.0009 20.1269 56.1222 21.2481 57.5009 21.2481H65.0009C66.3797 21.2481 67.5009 20.1269 67.5009 18.7481V14.9981H68.7509C69.0078 14.9982 69.2586 14.9192 69.469 14.7718C69.6794 14.6244 69.8392 14.4157 69.9268 14.1742C70.0143 13.9326 70.0254 13.67 69.9583 13.422C69.8913 13.174 69.7495 12.9526 69.5522 12.7881ZM65.0009 14.9981V18.7481H62.5009V14.9981H60.0009V18.7481H57.5009V14.9981C57.5009 14.2056 57.1297 13.4981 56.5534 13.0406L61.2509 9.1256L65.9484 13.0406C65.6531 13.2743 65.4144 13.5717 65.2503 13.9107C65.0862 14.2497 65.001 14.6215 65.0009 14.9981Z" fill="#FF6647"/>
</svg>
