<svg width="72" height="76" viewBox="0 0 72 76" fill="none" xmlns="http://www.w3.org/2000/svg">
<path d="M23.25 75.5H65.75C69.1962 75.5 72 72.6962 72 69.25V6.75C72 3.30375 69.1962 0.5 65.75 0.5H23.25C19.8038 0.5 17 3.30375 17 6.75V51.75H19.5V6.75C19.5 4.6825 21.1825 3 23.25 3H65.75C67.8175 3 69.5 4.6825 69.5 6.75V69.25C69.5 71.3175 67.8175 73 65.75 73H23.25C21.1825 73 19.5 71.3175 19.5 69.25V59.25H17V69.25C17 72.6962 19.8038 75.5 23.25 75.5Z" fill="#FF6647"/>
<path d="M22 64.25C22 64.5815 22.1317 64.8995 22.3661 65.1339C22.6005 65.3683 22.9185 65.5 23.25 65.5H65.75C66.0815 65.5 66.3995 65.3683 66.6339 65.1339C66.8683 64.8995 67 64.5815 67 64.25V6.75C67 6.41848 66.8683 6.10054 66.6339 5.86612C66.3995 5.6317 66.0815 5.5 65.75 5.5H23.25C22.9185 5.5 22.6005 5.6317 22.3661 5.86612C22.1317 6.10054 22 6.41848 22 6.75V51.75H24.5V8H64.5V63H24.5V59.25H22V64.25ZM38.25 68H50.75V70.5H38.25V68ZM4.5 75.5C6.5675 75.5 8.25 73.8175 8.25 71.75V14.25C8.25 14.0562 8.205 13.8638 8.11875 13.6913L5.61875 8.69125C5.19375 7.84375 3.8075 7.84375 3.3825 8.69125L0.882501 13.6913C0.795134 13.8645 0.749746 14.0559 0.750001 14.25V19.25H3.25V14.545L4.5 12.045L5.75 14.545V64.25H3.25V21.75H0.750001V71.75C0.750001 73.8175 2.4325 75.5 4.5 75.5ZM5.75 66.75V71.75C5.7356 72.0718 5.59762 72.3757 5.36477 72.5984C5.13193 72.8211 4.82217 72.9453 4.5 72.9453C4.17783 72.9453 3.86807 72.8211 3.63523 72.5984C3.40238 72.3757 3.2644 72.0718 3.25 71.75V66.75H5.75ZM5.75 0.5H4.5C4.16848 0.5 3.85054 0.631696 3.61612 0.866116C3.3817 1.10054 3.25 1.41848 3.25 1.75V3H5.75V0.5ZM12 18.9225H14.5V21.3663H12V18.9225ZM12 14.0363H14.5V16.48H12V14.0363ZM12 23.8087H14.5V26.2525H12V23.8087ZM12 33.5825H14.5V36.0262H12V33.5825ZM12 38.4688H14.5V40.9125H12V38.4688ZM12 28.6962H14.5V31.14H12V28.6962ZM12 43.355H14.5V45.7987H12V43.355Z" fill="#FF6647"/>
<path d="M23.3306 54.2505H25.7744V56.7505H23.3306V54.2505ZM14.5006 48.243H12.0006V49.2505C12.0006 49.8255 12.0669 50.3992 12.1956 50.9555L14.6294 50.3892C14.5438 50.0157 14.5006 49.6337 14.5006 49.2505V48.243ZM20.8869 56.7505V54.2505H19.5031C19.2169 54.2505 18.9331 54.2255 18.6581 54.1792L18.2406 56.6442C18.6506 56.7142 19.0744 56.7505 19.5006 56.7505H20.8869ZM12.0006 9.14922H14.5006V11.593H12.0006V9.14922ZM15.5169 55.6055L16.8469 53.4892C16.2919 53.1413 15.8104 52.6882 15.4294 52.1555L13.3981 53.6117C13.9731 54.4117 14.6856 55.083 15.5169 55.6055ZM14.3406 6.46047C14.1413 5.49963 13.7534 4.58787 13.1994 3.77797L11.1344 5.18672C11.5056 5.73047 11.7606 6.33047 11.8944 6.97047L14.3406 6.46047ZM11.1256 1.73547C10.3072 1.19501 9.39006 0.821603 8.42687 0.636719L7.95312 3.09047C8.59438 3.21422 9.20062 3.46172 9.75062 3.82422L11.1256 1.73547ZM27.5956 33.1855L28.9069 35.3142L33.2506 32.6417V54.2505H28.2506V56.7505H33.2506V59.2505H35.7506V56.7505H43.2506V59.2505H45.7506V56.7505H53.2506V59.2505H55.7506V56.7505H60.7506V54.2505H55.7506V51.7505H53.2506V54.2505H45.7506V51.7505H43.2506V54.2505H35.7506V49.2505H54.5006C54.8321 49.2505 55.1501 49.1188 55.3845 48.8844C55.6189 48.6499 55.7506 48.332 55.7506 48.0005V35.5005C55.7506 35.2885 55.6967 35.0799 55.5939 34.8945C55.4912 34.7091 55.3429 34.5528 55.1631 34.4405L45.1631 28.1905C44.9641 28.0668 44.7344 28.0012 44.5 28.0012C44.2656 28.0012 44.0359 28.0668 43.8369 28.1905L35.7506 33.2442V31.103L44.5006 25.718L60.0956 35.3142L61.4069 33.1855L53.2506 28.1667V24.2505H50.7506V26.6292L45.1556 23.1867C44.9585 23.0653 44.7315 23.001 44.5 23.001C44.2685 23.001 44.0415 23.0653 43.8444 23.1867L35.7506 28.1667V16.7505H43.2506V19.2505H45.7506V16.7505H53.2506V19.2505H55.7506V16.7505H60.7506V14.2505H55.7506V11.7505H53.2506V14.2505H45.7506V11.7505H43.2506V14.2505H35.7506V11.7505H33.2506V14.2505H28.2506V16.7505H33.2506V29.7055L27.5956 33.1855ZM45.7506 46.7505H43.2506V41.7505H45.7506V46.7505ZM44.5006 30.7242L53.2506 36.193V46.7505H48.2506V40.5005C48.2506 40.1689 48.1189 39.851 47.8845 39.6166C47.6501 39.3822 47.3321 39.2505 47.0006 39.2505H42.0006C41.6691 39.2505 41.3512 39.3822 41.1167 39.6166C40.8823 39.851 40.7506 40.1689 40.7506 40.5005V46.7505H35.7506V36.1942L44.5006 30.7242Z" fill="#FF6647"/>
</svg>
